<svg viewBox="0 0 720 720" fill="none" stroke="#35f095" stroke-linecap="round" stroke-linejoin="round" role="img" aria-label="Satellite constellation ring, three-quarter view" xmlns="http://www.w3.org/2000/svg" xmlns:xlink="http://www.w3.org/1999/xlink"><defs><radialGradient id="cst-glow" cx="50%" cy="50%" r="50%"><stop offset="0%" stop-color="#35f095" stop-opacity="0.14"/><stop offset="55%" stop-color="#35f095" stop-opacity="0.05"/><stop offset="100%" stop-color="#35f095" stop-opacity="0"/></radialGradient><filter id="cst-blur" x="-30%" y="-30%" width="160%" height="160%"><feGaussianBlur stdDeviation="2.2"/></filter><polygon id="cst-ring" points="625,360 623.9,372.2 622,384.3 619.4,396.3 616.2,408.1 612.3,419.7 607.7,431.1 602.5,442.2 596.6,453 590.2,463.6 583.2,473.8 575.6,483.6 567.5,493.1 558.9,502.2 549.8,510.9 540.2,519.1 530.2,526.9 519.7,534.2 508.9,541 497.8,547.3 486.3,553.2 474.5,558.5 462.5,563.3 450.2,567.5 437.7,571.2 425,574.3 412.2,576.9 399.3,578.9 386.2,580.3 373.1,581.2 360,581.5 346.9,581.2 333.8,580.3 320.7,578.9 307.8,576.9 295,574.3 282.3,571.2 269.8,567.5 257.5,563.3 245.5,558.5 233.7,553.2 222.2,547.3 211.1,541 200.3,534.2 189.8,526.9 179.8,519.1 170.2,510.9 161.1,502.2 152.5,493.1 144.4,483.6 136.8,473.8 129.8,463.6 123.4,453 117.5,442.2 112.3,431.1 107.7,419.7 103.8,408.1 100.6,396.3 98,384.3 96.1,372.2 95,360 94.6,347.7 94.9,335.4 95.9,323.1 97.7,310.8 100.2,298.5 103.5,286.4 107.5,274.4 112.2,262.6 117.7,251 123.8,239.6 130.7,228.5 138.2,217.7 146.5,207.3 155.3,197.3 164.8,187.7 174.9,178.5 185.6,169.8 196.8,161.6 208.5,154 220.7,146.9 233.3,140.5 246.3,134.6 259.7,129.4 273.5,124.8 287.5,120.9 301.7,117.7 316.1,115.2 330.6,113.4 345.3,112.4 360,112 374.7,112.4 389.4,113.4 403.9,115.2 418.3,117.7 432.5,120.9 446.5,124.8 460.3,129.4 473.7,134.6 486.7,140.5 499.3,146.9 511.5,154 523.2,161.6 534.4,169.8 545.1,178.5 555.2,187.7 564.7,197.3 573.5,207.3 581.8,217.7 589.3,228.5 596.2,239.6 602.3,251 607.8,262.6 612.5,274.4 616.5,286.4 619.8,298.5 622.3,310.8 624.1,323.1 625.1,335.4 625.4,347.7 625,360"/></defs><circle cx="86" cy="120" r="1.2" fill="#35f095" fill-opacity="0.35" stroke="none"/><circle cx="180" cy="72" r="0.8" fill="#35f095" fill-opacity="0.18" stroke="none"/><circle cx="300" cy="52" r="0.8" fill="#35f095" fill-opacity="0.35" stroke="none"/><circle cx="470" cy="66" r="1.2" fill="#35f095" fill-opacity="0.18" stroke="none"/><circle cx="610" cy="110" r="0.8" fill="#35f095" fill-opacity="0.35" stroke="none"/><circle cx="660" cy="210" r="0.8" fill="#35f095" fill-opacity="0.18" stroke="none"/><circle cx="92" cy="320" r="1.2" fill="#35f095" fill-opacity="0.35" stroke="none"/><circle cx="60" cy="480" r="0.8" fill="#35f095" fill-opacity="0.18" stroke="none"/><circle cx="150" cy="610" r="0.8" fill="#35f095" fill-opacity="0.35" stroke="none"/><circle cx="360" cy="660" r="1.2" fill="#35f095" fill-opacity="0.18" stroke="none"/><circle cx="560" cy="630" r="0.8" fill="#35f095" fill-opacity="0.35" stroke="none"/><circle cx="665" cy="500" r="0.8" fill="#35f095" fill-opacity="0.18" stroke="none"/><circle cx="420" cy="120" r="1.2" fill="#35f095" fill-opacity="0.35" stroke="none"/><circle cx="240" cy="180" r="0.8" fill="#35f095" fill-opacity="0.18" stroke="none"/><circle cx="520" cy="170" r="0.8" fill="#35f095" fill-opacity="0.35" stroke="none"/><ellipse cx="360" cy="360" rx="331.25" ry="236.38" fill="url(#cst-glow)" stroke="none"/><path d="M 672.8 449.7 L 667.7 462.3 L 662 474.6 L 655.6 486.7 L 648.7 498.5 L 641.2 509.9 L 633.1 521 L 624.4 531.8 L 615.3 542.1 L 605.7 552.1 L 595.5 561.6 L 585 570.7 L 574 579.4 L 562.6 587.6 L 550.8 595.3 L 538.7 602.5 L 526.2 609.3 L 513.4 615.5 L 500.4 621.3 L 487.1 626.5 L 473.6 631.1 L 459.8 635.3 L 445.9 638.9 L 431.8 642 L 417.6 644.5 L 403.3 646.4 L 388.9 647.8 L 374.5 648.7 L 360 648.9 L 345.5 648.7 L 331.1 647.8 L 316.7 646.4 L 302.4 644.5 L 288.2 642 L 274.1 638.9 L 260.2 635.3 L 246.4 631.1 L 232.9 626.5 L 219.6 621.3 L 206.6 615.5 L 193.8 609.3 L 181.3 602.5 L 169.2 595.3 L 157.4 587.6 L 146 579.4 L 135 570.7 L 124.5 561.6 L 114.3 552.1 L 104.7 542.1 L 95.6 531.8 L 86.9 521 L 78.8 509.9 L 71.3 498.5 L 64.4 486.7 L 58 474.6 L 52.3 462.3 L 47.2 449.7 L 42.8 436.8 L 39 423.8 L 35.9 410.5 L 33.5 397.1" stroke-opacity="0.16" stroke-width="1"/><path d="M 14.6 297.6 L 16.3 283.9 L 18.6 270.1 L 21.7 256.5 L 25.5 242.9 L 29.9 229.4 L 35.1 216.1 L 41 203 L 47.6 190.1 L 54.8 177.5 L 62.7 165.1 L 71.3 153 L 80.5 141.3 L 90.4 129.9 L 100.9 118.9 L 111.9 108.4 L 123.6 98.2 L 135.8 88.6 L 148.5 79.5 L 161.7 70.9 L 175.4 62.8 L 189.5 55.3 L 204 48.4 L 218.9 42.1 L 234.2 36.5 L 249.7 31.5 L 265.6 27.1 L 281.6 23.5 L 297.8 20.5 L 314.2 18.2 L 330.7 16.6 L 347.3 15.7 L 363.9 15.5 L 380.5 16 L 397 17.3 L 413.5 19.2 L 429.8 21.8 L 446 25.1 L 461.9 29.1 L 477.6 33.8 L 493 39.1 L 508.1 45 L 522.8 51.6 L 537.2 58.8 L 551.1 66.5 L 564.6 74.8 L 577.6 83.7 L 590 93.1 L 602 102.9 L 613.3 113.3 L 624.1 124 L 634.3 135.2 L 643.9 146.8 L 652.8 158.7 L 661.1 170.9 L 668.7 183.4 L 675.6 196.2 L 681.9 209.2 L 687.4 222.4 L 692.2 235.7 L 696.4 249.3" stroke-opacity="0.12" stroke-width="1"/><path d="M 503.4 419 L 499 425.8 L 494.1 432.3 L 488.9 438.5 L 483.2 444.5 L 477.3 450.3 L 471 455.7 L 464.4 460.8 L 457.5 465.6 L 450.4 470 L 443 474.1 L 435.3 477.8 L 427.5 481.2 L 419.5 484.2 L 411.3 486.8 L 402.9 489 L 394.5 490.8 L 386 492.3 L 377.3 493.3 L 368.7 493.9 L 360 494.1 L 351.3 493.9 L 342.7 493.3 L 334 492.3 L 325.5 490.8 L 317.1 489 L 308.7 486.8 L 300.5 484.2 L 292.5 481.2 L 284.7 477.8 L 277 474.1 L 269.6 470 L 262.5 465.6 L 255.6 460.8 L 249 455.7 L 242.7 450.3 L 236.8 444.5 L 231.1 438.5 L 225.9 432.3 L 221 425.8 L 216.6 419" stroke-opacity="0.2" stroke-width="1"/><use href="#cst-ring" stroke-opacity="0.5" stroke-width="3.5" filter="url(#cst-blur)"/><use href="#cst-ring" stroke-opacity="0.85" stroke-width="1.4"/><line x1="625" y1="360" x2="462.49" y2="563.25" stroke-opacity="0.22" stroke-width="1" stroke-dasharray="3 5"/><line x1="462.49" y1="563.25" x2="134.41" y2="470.41" stroke-opacity="0.22" stroke-width="1" stroke-dasharray="3 5"/><line x1="134.41" y1="470.41" x2="152.3" y2="200.58" stroke-opacity="0.22" stroke-width="1" stroke-dasharray="3 5"/><line x1="152.3" y1="200.58" x2="460.26" y2="129.38" stroke-opacity="0.22" stroke-width="1" stroke-dasharray="3 5"/><line x1="460.26" y1="129.38" x2="625" y2="360" stroke-opacity="0.22" stroke-width="1" stroke-dasharray="3 5"/><g opacity="0.65"><rect x="621.43" y="356.43" width="7.14" height="7.14" stroke-width="1.6"/><line x1="617.18" y1="360" x2="621.43" y2="360" stroke-width="1.6"/><line x1="628.57" y1="360" x2="632.82" y2="360" stroke-width="1.6"/><circle cx="625" cy="360" r="1.1" fill="#35f095" stroke="none"/></g><g><rect x="551.05" y="500.29" width="9.66" height="9.66" stroke-width="1.6"/><line x1="545.3" y1="505.12" x2="551.05" y2="505.12" stroke-width="1.6"/><line x1="560.71" y1="505.12" x2="566.46" y2="505.12" stroke-width="1.6"/><circle cx="555.88" cy="505.12" r="1.1" fill="#35f095" stroke="none"/></g><g><rect x="457.66" y="558.42" width="9.66" height="9.66" stroke-width="1.6"/><line x1="451.91" y1="563.25" x2="457.66" y2="563.25" stroke-width="1.6"/><line x1="467.32" y1="563.25" x2="473.07" y2="563.25" stroke-width="1.6"/><circle cx="462.49" cy="563.25" r="1.1" fill="#35f095" stroke="none"/></g><g><rect x="269.11" y="563.95" width="9.66" height="9.66" stroke-width="1.6"/><line x1="263.36" y1="568.78" x2="269.11" y2="568.78" stroke-width="1.6"/><line x1="278.77" y1="568.78" x2="284.52" y2="568.78" stroke-width="1.6"/><circle cx="273.94" cy="568.78" r="1.1" fill="#35f095" stroke="none"/></g><g><rect x="129.58" y="465.58" width="9.66" height="9.66" stroke-width="1.6"/><line x1="123.83" y1="470.41" x2="129.58" y2="470.41" stroke-width="1.6"/><line x1="139.24" y1="470.41" x2="144.99" y2="470.41" stroke-width="1.6"/><circle cx="134.41" cy="470.41" r="1.1" fill="#35f095" stroke="none"/></g><g><rect x="91.31" y="367.38" width="9.66" height="9.66" stroke-width="1.6"/><line x1="85.56" y1="372.21" x2="91.31" y2="372.21" stroke-width="1.6"/><line x1="100.97" y1="372.21" x2="106.72" y2="372.21" stroke-width="1.6"/><circle cx="96.14" cy="372.21" r="1.1" fill="#35f095" stroke="none"/></g><g opacity="0.65"><rect x="148.73" y="197.01" width="7.14" height="7.14" stroke-width="1.6"/><line x1="144.48" y1="200.58" x2="148.73" y2="200.58" stroke-width="1.6"/><line x1="155.87" y1="200.58" x2="160.12" y2="200.58" stroke-width="1.6"/><circle cx="152.3" cy="200.58" r="1.1" fill="#35f095" stroke="none"/></g><g opacity="0.65"><rect x="247.2" y="129.22" width="7.14" height="7.14" stroke-width="1.6"/><line x1="242.95" y1="132.79" x2="247.2" y2="132.79" stroke-width="1.6"/><line x1="254.34" y1="132.79" x2="258.59" y2="132.79" stroke-width="1.6"/><circle cx="250.77" cy="132.79" r="1.1" fill="#35f095" stroke="none"/></g><g opacity="0.65"><rect x="456.69" y="125.81" width="7.14" height="7.14" stroke-width="1.6"/><line x1="452.44" y1="129.38" x2="456.69" y2="129.38" stroke-width="1.6"/><line x1="463.83" y1="129.38" x2="468.08" y2="129.38" stroke-width="1.6"/><circle cx="460.26" cy="129.38" r="1.1" fill="#35f095" stroke="none"/></g><g opacity="0.65"><rect x="572.79" y="207.18" width="7.14" height="7.14" stroke-width="1.6"/><line x1="568.54" y1="210.75" x2="572.79" y2="210.75" stroke-width="1.6"/><line x1="579.93" y1="210.75" x2="584.18" y2="210.75" stroke-width="1.6"/><circle cx="576.36" cy="210.75" r="1.1" fill="#35f095" stroke="none"/></g></svg>
